<svg id="Layer_1" data-name="Layer 1" xmlns="http://www.w3.org/2000/svg" viewBox="0 0 255.12 53.36"><defs><style>.cls-1{fill:#f05c5f;}.cls-2{fill:#363e4a;}</style></defs><title>spacestock black red</title><path class="cls-1" d="M183.24,11.57A15.39,15.39,0,1,0,198.62,27,15.39,15.39,0,0,0,183.24,11.57Zm6.48,19.22V37l-3.89-5.27h-9.07V21.9l6.48-5,6.48,5Z"/><path class="cls-2" d="M12.16,35.57l2.23-5.09a14.94,14.94,0,0,0,7.4,2c2.51,0,3.33-.55,3.33-1.45,0-2.86-12.53.39-12.53-8.11,0-4,3.68-7,10.34-7a18.72,18.72,0,0,1,8.38,1.8l-2.23,5.05A12.49,12.49,0,0,0,23,21.12c-2.51,0-3.41.7-3.41,1.49,0,2.93,12.49-.24,12.49,8.18,0,3.92-3.6,7-10.49,7A19.47,19.47,0,0,1,12.16,35.57Z"/><path class="cls-2" d="M58.25,26.8c0,6.73-4.66,11-10.41,11a7.92,7.92,0,0,1-5.92-2.23V45H34.48V16.18h7.09V18.3c1.41-1.69,3.49-2.47,6.27-2.47C53.59,15.83,58.25,20.06,58.25,26.8Zm-7.52,0c0-3.22-1.95-5.06-4.46-5.06s-4.46,1.84-4.46,5.06,1.95,5.05,4.46,5.05S50.73,30,50.73,26.8Z"/><path class="cls-2" d="M80.34,25.62V37.41H73.41V34.67c-1.06,2-3.17,3.09-6.26,3.09-5.1,0-7.92-2.86-7.92-6.54,0-3.91,2.86-6.34,9.44-6.34H72.9c-.12-2.16-1.56-3.37-4.5-3.37a9.86,9.86,0,0,0-5.76,1.84L60.13,18.3a17.83,17.83,0,0,1,9.36-2.47C76.39,15.83,80.34,18.89,80.34,25.62Zm-7.44,5V28.75H69.69c-2.39,0-3.25.87-3.25,2.16s1,2.15,2.78,2.15A3.66,3.66,0,0,0,72.9,30.59Z"/><path class="cls-2" d="M83.24,26.76c0-6.39,5.05-10.93,12.18-10.93,4.82,0,8.5,2.15,10,5.84L99.61,24.6a4.62,4.62,0,0,0-4.23-2.86c-2.58,0-4.62,1.81-4.62,5s2,5.09,4.62,5.09A4.6,4.6,0,0,0,99.61,29l5.76,2.94c-1.45,3.68-5.13,5.83-10,5.83C88.29,37.76,83.24,33.22,83.24,26.76Z"/><path class="cls-2" d="M128.75,28.68H113.32c.63,2.15,2.47,3.4,5.21,3.4a6.77,6.77,0,0,0,4.89-1.84l3.92,4.08c-2,2.27-5,3.44-9,3.44-7.56,0-12.45-4.66-12.45-11s5-10.93,11.67-10.93c6.27,0,11.36,4,11.36,11C128.87,27.38,128.79,28.09,128.75,28.68ZM113.2,24.76h8.7a4.42,4.42,0,0,0-8.7,0Z"/><path class="cls-1" d="M129.85,35.57l2.23-5.09a14.94,14.94,0,0,0,7.4,2c2.51,0,3.33-.55,3.33-1.45,0-2.86-12.53.39-12.53-8.11,0-4,3.68-7,10.34-7a18.72,18.72,0,0,1,8.38,1.8l-2.23,5.05a12.49,12.49,0,0,0-6.11-1.56c-2.51,0-3.41.7-3.41,1.49,0,2.93,12.49-.24,12.49,8.18,0,3.92-3.6,7-10.49,7A19.47,19.47,0,0,1,129.85,35.57Z"/><path class="cls-1" d="M166.82,36.55a10,10,0,0,1-5.17,1.21c-5.45,0-8.62-2.66-8.62-8.1V22.53h-3.09V17H153V11.44h7.44V17h4.86v5.56h-4.86v7A2.15,2.15,0,0,0,162.71,32a4.08,4.08,0,0,0,2.27-.66Z"/><path class="cls-1" d="M200.94,26.76c0-6.39,5.05-10.93,12.18-10.93,4.82,0,8.5,2.15,9.95,5.84l-5.76,2.93a4.62,4.62,0,0,0-4.23-2.86c-2.58,0-4.62,1.81-4.62,5s2,5.09,4.62,5.09A4.6,4.6,0,0,0,217.31,29l5.76,2.94c-1.45,3.68-5.13,5.83-9.95,5.83C206,37.76,200.94,33.22,200.94,26.76Z"/><path class="cls-1" d="M234.66,30l-2.19,2.23v5.21H225V8.35h7.44V23.58l7.6-7.4h8.81l-8.81,9.09,9.55,12.14h-9Z"/><rect class="cls-1" x="215.94" y="17.47" width="1.54" height="2.31"/></svg>